<?xml version="1.0" standalone="no"?>
<!DOCTYPE svg PUBLIC "-//W3C//DTD SVG 20010904//EN"
 "http://www.w3.org/TR/2001/REC-SVG-20010904/DTD/svg10.dtd">
<svg version="1.0" xmlns="http://www.w3.org/2000/svg"
 width="1024.000000pt" height="1024.000000pt" viewBox="0 0 1024.000000 1024.000000"
 preserveAspectRatio="xMidYMid meet">

<g transform="translate(0.000000,1024.000000) scale(0.100000,-0.100000)"
fill="#000000" stroke="none">
<path d="M5080 7754 c-36 -7 -256 -91 -490 -185 -234 -94 -963 -387 -1620
-651 -657 -263 -1214 -490 -1237 -503 -71 -42 -88 -76 -87 -175 1 -103 23
-153 84 -194 37 -24 436 -186 1003 -406 97 -38 186 -74 197 -80 19 -10 19 -27
22 -708 3 -802 -4 -739 105 -853 247 -260 1087 -585 1768 -685 181 -27 514
-25 705 4 309 48 709 163 1015 294 180 77 407 193 513 262 45 30 82 52 82 50
0 -2 -22 -77 -49 -166 -76 -252 -104 -406 -105 -569 -1 -131 0 -137 26 -176
32 -48 137 -121 236 -163 126 -53 243 -57 378 -11 121 40 250 144 272 217 28
96 6 310 -59 560 -30 118 -116 381 -149 459 -13 30 -15 46 -7 65 5 14 12 96
15 183 4 132 2 164 -12 201 -20 52 -78 108 -130 127 l-36 13 2 464 3 463 110
45 c130 54 547 225 725 299 279 116 308 142 317 284 3 61 1 83 -14 111 -34 64
-38 66 -638 310 -99 40 -297 122 -440 181 -143 59 -444 182 -670 274 -225 92
-450 184 -500 205 -49 21 -214 88 -365 150 -151 62 -367 151 -480 198 -297
124 -354 136 -490 106z m205 -204 c59 -21 700 -286 1895 -782 975 -404 1075
-445 1113 -459 20 -7 37 -15 37 -19 0 -3 -17 -12 -38 -21 -20 -8 -215 -89
-433 -178 l-396 -163 28 -52 c16 -28 31 -70 35 -93 5 -33 10 -40 23 -36 14 4
14 3 1 -6 -24 -17 -27 -14 -34 35 -13 98 -86 189 -192 239 -28 13 -213 70
-410 125 -390 110 -946 274 -1170 346 -131 42 -144 48 -174 86 -43 53 -108 82
-250 109 -130 24 -191 22 -269 -11 -53 -23 -115 -82 -131 -126 -14 -37 -12
-150 4 -187 26 -63 129 -132 235 -157 69 -16 211 -8 271 16 25 9 64 30 88 46
l42 29 423 -130 c440 -136 679 -207 957 -286 147 -42 220 -68 220 -79 0 -3
-12 0 -27 6 -24 8 -54 -1 -213 -67 -102 -42 -347 -142 -545 -222 -198 -80
-538 -218 -755 -306 l-395 -161 -95 0 -95 1 -375 145 c-677 263 -1311 507
-2360 908 -427 163 -423 161 -413 170 4 5 485 200 1068 434 1215 487 1791 719
1989 800 197 82 231 86 341 46z m65 -915 c73 -15 125 -33 118 -41 -3 -2 -18 0
-33 6 -29 11 -65 5 -65 -11 0 -5 -9 -9 -20 -9 -11 0 -20 -4 -20 -10 0 -5 -13
-10 -28 -10 -16 0 -32 -3 -36 -7 -3 -4 -31 -7 -60 -7 -40 -1 -52 2 -45 10 7 9
0 11 -26 9 -19 -1 -35 2 -35 7 0 30 -28 50 -52 37 -10 -5 -18 -7 -18 -5 0 10
62 37 103 46 48 10 122 5 217 -15z m301 -171 c99 -35 821 -250 1189 -354 217
-62 423 -125 456 -141 66 -31 110 -74 146 -142 l23 -42 3 -586 3 -587 27 -5
c40 -8 93 -48 115 -85 40 -68 32 -327 -12 -428 -16 -35 -30 -49 -63 -64 -92
-42 -229 -16 -263 50 -26 51 -45 158 -45 260 0 116 11 160 59 225 l36 50 0
531 0 530 -30 60 c-22 43 -43 68 -78 91 -53 36 -76 43 -432 144 -227 64 -709
210 -1072 325 l-142 45 15 41 c8 22 14 53 14 69 0 34 -4 33 51 13z m-3935
-256 l29 -33 -32 29 c-18 17 -33 31 -33 33 0 8 8 1 36 -29z m6934 29 c0 -2
-12 -14 -27 -28 l-28 -24 24 28 c23 25 31 32 31 24z m-6875 -75 c-3 -3 -11 0
-18 7 -9 10 -8 11 6 5 10 -3 15 -9 12 -12z m6745 -17 c-14 -8 -29 -14 -35 -14
-5 0 1 6 15 14 14 8 30 14 35 14 6 0 -1 -6 -15 -14z m-6660 -15 c8 -5 11 -10
5 -10 -5 0 -17 5 -25 10 -8 5 -10 10 -5 10 6 0 17 -5 25 -10z m6590 -15 c-14
-8 -29 -14 -35 -14 -5 0 1 6 15 14 14 8 30 14 35 14 6 0 -1 -6 -15 -14z
m-6520 -15 c8 -5 11 -10 5 -10 -5 0 -17 5 -25 10 -8 5 -10 10 -5 10 6 0 17 -5
25 -10z m6425 -25 c-27 -13 -54 -24 -60 -24 -5 1 13 11 40 24 28 13 55 24 60
24 6 -1 -12 -11 -40 -24z m-6320 -16 c22 -11 29 -16 15 -13 -14 4 -43 15 -65
25 -22 11 -29 16 -15 13 14 -4 43 -15 65 -25z m6235 -19 c-8 -5 -19 -10 -25
-10 -5 0 -3 5 5 10 8 5 20 10 25 10 6 0 3 -5 -5 -10z m-6110 -30 c8 -5 11 -10
5 -10 -5 0 -17 5 -25 10 -8 5 -10 10 -5 10 6 0 17 -5 25 -10z m6040 0 c-8 -5
-19 -10 -25 -10 -5 0 -3 5 5 10 8 5 20 10 25 10 6 0 3 -5 -5 -10z m-5990 -20
c8 -5 11 -10 5 -10 -5 0 -17 5 -25 10 -8 5 -10 10 -5 10 6 0 17 -5 25 -10z
m5920 -10 c-8 -5 -19 -10 -25 -10 -5 0 -3 5 5 10 8 5 20 10 25 10 6 0 3 -5 -5
-10z m-5815 -31 c22 -11 29 -16 15 -13 -14 4 -43 15 -65 25 -22 11 -29 16 -15
13 14 -4 43 -15 65 -25z m5755 6 c-14 -8 -29 -14 -35 -14 -5 0 1 6 15 14 14 8
30 14 35 14 6 0 -1 -6 -15 -14z m-60 -25 c-8 -5 -19 -10 -25 -10 -5 0 -3 5 5
10 8 5 20 10 25 10 6 0 3 -5 -5 -10z m-5575 -26 c36 -15 64 -28 62 -30 -3 -4
-128 44 -136 52 -10 9 12 3 74 -22z m5515 1 c-14 -8 -29 -14 -35 -14 -5 0 1 6
15 14 14 8 30 14 35 14 6 0 -1 -6 -15 -14z m-60 -25 c-8 -5 -19 -10 -25 -10
-5 0 -3 5 5 10 8 5 20 10 25 10 6 0 3 -5 -5 -10z m-5320 -32 c10 -6 7 -7 -10
-2 -14 3 -32 11 -40 16 -10 6 -7 7 10 2 14 -3 32 -11 40 -16z m5270 12 c-8 -5
-19 -10 -25 -10 -5 0 -3 5 5 10 8 5 20 10 25 10 6 0 3 -5 -5 -10z m-50 -20
c-8 -5 -19 -10 -25 -10 -5 0 -3 5 5 10 8 5 20 10 25 10 6 0 3 -5 -5 -10z
m-5170 -10 c8 -5 11 -10 5 -10 -5 0 -17 5 -25 10 -8 5 -10 10 -5 10 6 0 17 -5
25 -10z m75 -31 c22 -10 29 -16 15 -13 -28 7 -80 33 -65 33 6 0 28 -9 50 -20z
m5025 11 c-8 -5 -19 -10 -25 -10 -5 0 -3 5 5 10 8 5 20 10 25 10 6 0 3 -5 -5
-10z m-516 -49 c-2 -3 -12 3 -22 13 -16 17 -16 18 5 5 12 -7 20 -15 17 -18z
m446 19 c-8 -5 -19 -10 -25 -10 -5 0 -3 5 5 10 8 5 20 10 25 10 6 0 3 -5 -5
-10z m-4880 -10 c8 -5 11 -10 5 -10 -5 0 -17 5 -25 10 -8 5 -10 10 -5 10 6 0
17 -5 25 -10z m4830 -10 c-8 -5 -19 -10 -25 -10 -5 0 -3 5 5 10 8 5 20 10 25
10 6 0 3 -5 -5 -10z m-4760 -16 c23 -9 39 -18 37 -20 -2 -3 -24 4 -48 15 -54
24 -45 27 11 5z m4407 -47 c-2 -6 -10 -12 -18 -15 -12 -3 -12 -2 0 6 12 9 12
14 -3 39 l-17 28 21 -24 c11 -13 19 -29 17 -34z m-4297 3 c8 -5 11 -10 5 -10
-5 0 -17 5 -25 10 -8 5 -10 10 -5 10 6 0 17 -5 25 -10z m50 -20 c8 -5 11 -10
5 -10 -5 0 -17 5 -25 10 -8 5 -10 10 -5 10 6 0 17 -5 25 -10z m50 -20 c8 -5
11 -10 5 -10 -5 0 -17 5 -25 10 -8 5 -10 10 -5 10 6 0 17 -5 25 -10z m4130 0
c-8 -5 -19 -10 -25 -10 -5 0 -3 5 5 10 8 5 20 10 25 10 6 0 3 -5 -5 -10z
m-4080 -20 c8 -5 11 -10 5 -10 -5 0 -17 5 -25 10 -8 5 -10 10 -5 10 6 0 17 -5
25 -10z m4000 -10 c-8 -5 -19 -10 -25 -10 -5 0 -3 5 5 10 8 5 20 10 25 10 6 0
3 -5 -5 -10z m-3920 -22 c10 -6 7 -7 -10 -2 -14 3 -32 11 -40 16 -10 6 -7 7
10 2 14 -3 32 -11 40 -16z m3870 2 c-8 -5 -19 -10 -25 -10 -5 0 -3 5 5 10 8 5
20 10 25 10 6 0 3 -5 -5 -10z m-3820 -20 c8 -5 11 -10 5 -10 -5 0 -17 5 -25
10 -8 5 -10 10 -5 10 6 0 17 -5 25 -10z m3740 -10 c-8 -5 -19 -10 -25 -10 -5
0 -3 5 5 10 8 5 20 10 25 10 6 0 3 -5 -5 -10z m-3660 -22 c10 -6 7 -7 -10 -2
-14 3 -32 11 -40 16 -10 6 -7 7 10 2 14 -3 32 -11 40 -16z m3610 2 c-8 -5 -19
-10 -25 -10 -5 0 -3 5 5 10 8 5 20 10 25 10 6 0 3 -5 -5 -10z m-3530 -32 c10
-6 7 -7 -10 -2 -14 3 -32 11 -40 16 -10 6 -7 7 10 2 14 -3 32 -11 40 -16z
m3450 2 c-8 -5 -19 -10 -25 -10 -5 0 -3 5 5 10 8 5 20 10 25 10 6 0 3 -5 -5
-10z m-3370 -32 c10 -6 7 -7 -10 -2 -14 3 -32 11 -40 16 -10 6 -7 7 10 2 14
-3 32 -11 40 -16z m50 -18 c8 -5 11 -10 5 -10 -5 0 -17 5 -25 10 -8 5 -10 10
-5 10 6 0 17 -5 25 -10z m3190 0 c-8 -5 -19 -10 -25 -10 -5 0 -3 5 5 10 8 5
20 10 25 10 6 0 3 -5 -5 -10z m-3120 -26 c23 -9 39 -18 37 -20 -2 -3 -24 4
-48 15 -54 24 -45 27 11 5z m3070 6 c-8 -5 -19 -10 -25 -10 -5 0 -3 5 5 10 8
5 20 10 25 10 6 0 3 -5 -5 -10z m-2960 -50 c8 -5 11 -10 5 -10 -5 0 -17 5 -25
10 -8 5 -10 10 -5 10 6 0 17 -5 25 -10z m50 -20 c8 -5 11 -10 5 -10 -5 0 -17
5 -25 10 -8 5 -10 10 -5 10 6 0 17 -5 25 -10z m2730 0 c-8 -5 -19 -10 -25 -10
-5 0 -3 5 5 10 8 5 20 10 25 10 6 0 3 -5 -5 -10z m-75 -30 c-22 -10 -44 -18
-50 -18 -5 0 8 8 30 19 22 10 45 18 50 18 6 0 -8 -9 -30 -19z m-2575 0 c8 -5
11 -10 5 -10 -5 0 -17 5 -25 10 -8 5 -10 10 -5 10 6 0 17 -5 25 -10z m80 -32
c10 -6 7 -7 -10 -2 -14 3 -32 11 -40 16 -10 6 -7 7 10 2 14 -3 32 -11 40 -16z
m2420 2 c-8 -5 -19 -10 -25 -10 -5 0 -3 5 5 10 8 5 20 10 25 10 6 0 3 -5 -5
-10z m-3137 -478 c195 -149 526 -313 889 -441 131 -45 439 -137 558 -165 520
-124 1014 -62 1725 217 262 102 538 245 692 359 29 21 53 38 55 38 2 0 2 -51
1 -113 -1 -61 -2 -149 -2 -194 l-1 -82 -133 -88 c-445 -296 -1076 -503 -1660
-545 -332 -25 -731 41 -1202 197 -390 129 -682 270 -897 433 l-88 66 2 395 c2
232 4 306 5 180 l3 -217 53 -40z m797 446 c10 -6 7 -7 -10 -2 -14 3 -32 11
-40 16 -10 6 -7 7 10 2 14 -3 32 -11 40 -16z m2260 2 c-8 -5 -19 -10 -25 -10
-5 0 -3 5 5 10 8 5 20 10 25 10 6 0 3 -5 -5 -10z m-2210 -20 c8 -5 11 -10 5
-10 -5 0 -17 5 -25 10 -8 5 -10 10 -5 10 6 0 17 -5 25 -10z m2160 0 c-8 -5
-19 -10 -25 -10 -5 0 -3 5 5 10 8 5 20 10 25 10 6 0 3 -5 -5 -10z m-2110 -20
c8 -5 11 -10 5 -10 -5 0 -17 5 -25 10 -8 5 -10 10 -5 10 6 0 17 -5 25 -10z
m2060 0 c-8 -5 -19 -10 -25 -10 -5 0 -3 5 5 10 8 5 20 10 25 10 6 0 3 -5 -5
-10z m-50 -19 c-8 -5 -26 -11 -40 -15 -21 -5 -20 -3 5 9 32 15 60 20 35 6z
m-1930 -11 c8 -5 11 -10 5 -10 -5 0 -17 5 -25 10 -8 5 -10 10 -5 10 6 0 17 -5
25 -10z m105 -41 c22 -11 29 -16 15 -13 -14 4 -43 15 -65 25 -22 11 -29 16
-15 13 14 -4 43 -15 65 -25z m1720 11 c-22 -10 -44 -18 -50 -18 -5 0 8 8 30
19 22 10 45 18 50 18 6 0 -8 -9 -30 -19z m-100 -39 c-47 -21 -92 -36 -85 -28
7 8 103 46 115 46 6 0 -8 -8 -30 -18z m-1515 -13 c10 -6 7 -7 -10 -2 -14 3
-32 11 -40 16 -10 6 -7 7 10 2 14 -3 32 -11 40 -16z m80 -28 c8 -5 11 -10 5
-10 -5 0 -17 5 -25 10 -8 5 -10 10 -5 10 6 0 17 -5 25 -10z m1330 0 c-8 -5
-19 -10 -25 -10 -5 0 -3 5 5 10 8 5 20 10 25 10 6 0 3 -5 -5 -10z m-50 -20
c-8 -5 -19 -10 -25 -10 -5 0 -3 5 5 10 8 5 20 10 25 10 6 0 3 -5 -5 -10z
m-1170 -22 c10 -6 7 -7 -10 -2 -14 3 -32 11 -40 16 -10 6 -7 7 10 2 14 -3 32
-11 40 -16z m1120 2 c-8 -5 -19 -10 -25 -10 -5 0 -3 5 5 10 8 5 20 10 25 10 6
0 3 -5 -5 -10z m-1040 -32 c10 -6 7 -7 -10 -2 -14 3 -32 11 -40 16 -10 6 -7 7
10 2 14 -3 32 -11 40 -16z m960 2 c-8 -5 -19 -10 -25 -10 -5 0 -3 5 5 10 8 5
20 10 25 10 6 0 3 -5 -5 -10z m-910 -20 c8 -5 11 -10 5 -10 -5 0 -17 5 -25 10
-8 5 -10 10 -5 10 6 0 17 -5 25 -10z m110 -42 c10 -6 7 -7 -10 -2 -14 3 -32
11 -40 16 -10 6 -7 7 10 2 14 -3 32 -11 40 -16z m670 12 c-8 -5 -19 -10 -25
-10 -5 0 -3 5 5 10 8 5 20 10 25 10 6 0 3 -5 -5 -10z m-50 -20 c-8 -5 -19 -10
-25 -10 -5 0 -3 5 5 10 8 5 20 10 25 10 6 0 3 -5 -5 -10z m-570 -10 c8 -5 11
-10 5 -10 -5 0 -17 5 -25 10 -8 5 -10 10 -5 10 6 0 17 -5 25 -10z m50 -20 c8
-5 11 -10 5 -10 -5 0 -17 5 -25 10 -8 5 -10 10 -5 10 6 0 17 -5 25 -10z m420
-10 c-8 -5 -19 -10 -25 -10 -5 0 -3 5 5 10 8 5 20 10 25 10 6 0 3 -5 -5 -10z
m-350 -15 c19 -7 28 -14 20 -14 -8 0 -28 6 -45 14 -39 17 -21 18 25 0z m67
-21 c-3 -3 -12 -4 -19 -1 -8 3 -5 6 6 6 11 1 17 -2 13 -5z m176 -1 c-7 -2 -19
-2 -25 0 -7 3 -2 5 12 5 14 0 19 -2 13 -5z m-75 -10 c-16 -2 -40 -2 -55 0 -16
2 -3 4 27 4 30 0 43 -2 28 -4z m-1998 -398 c0 -8 -4 -15 -10 -15 -5 0 -10 7
-10 15 0 8 5 15 10 15 6 0 10 -7 10 -15z m21 -336 c30 -57 68 -94 164 -158
343 -229 1017 -457 1574 -531 226 -30 209 -33 214 48 l3 67 2 -74 2 -74 -85 7
c-550 45 -1342 298 -1716 548 -129 86 -190 167 -188 248 1 32 2 31 9 -11 4
-26 14 -57 21 -70z m4522 -306 c98 -304 147 -534 147 -688 0 -89 -25 -133
-103 -186 -33 -21 -63 -39 -67 -39 -4 0 -10 57 -13 128 -3 70 -9 135 -12 144
-17 43 -25 -5 -25 -147 l0 -154 -57 -17 c-41 -12 -79 -15 -137 -11 -125 8
-116 -6 -116 177 0 148 -8 195 -25 152 -4 -9 -10 -79 -12 -154 -3 -76 -8 -138
-11 -138 -10 0 -127 70 -149 88 -44 38 -63 83 -63 151 0 166 63 447 183 811 3
8 8 23 11 32 5 16 9 16 42 -7 91 -62 214 -60 300 4 22 16 42 30 45 30 3 1 31
-79 62 -176z m-2566 -160 c-2 -16 -4 -5 -4 22 0 28 2 40 4 28 2 -13 2 -35 0
-50z"/>
</g>
</svg>
